<svg width="56" height="60" viewBox="0 0 56 60" fill="none" xmlns="http://www.w3.org/2000/svg">
<path d="M47.9194 48.2499C47.4339 48.2499 47.0405 48.6433 47.0405 49.1288V59.1211C47.0405 59.6066 47.4339 60 47.9194 60C48.4049 60 48.7983 59.6066 48.7983 59.1211V49.1288C48.7983 48.6434 48.4049 48.2499 47.9194 48.2499Z" fill="white"/>
<path d="M27.0388 48.2499C26.5533 48.2499 26.1599 48.6433 26.1599 49.1288V59.1211C26.1599 59.6066 26.5533 60 27.0388 60C27.5243 60 27.9177 59.6066 27.9177 59.1211V49.1288C27.9177 48.6434 27.5243 48.2499 27.0388 48.2499Z" fill="white"/>
<path d="M41.476 35.1824V34.0888C44.9875 32.7185 47.6545 29.601 48.4259 25.805C48.5451 25.8146 48.6646 25.8211 48.7845 25.8211C51.2382 25.8211 53.2342 23.825 53.2342 21.3715C53.2342 19.9425 52.5564 18.6696 51.5062 17.8549V12.932C51.5184 12.9033 51.5314 12.8752 51.5432 12.8462C51.9782 11.7854 52.1425 10.6209 52.0187 9.47848C51.9795 9.11648 51.9277 8.75262 51.8648 8.39672C51.0057 3.53133 46.7659 0 41.7835 0H41.6071C41.1216 0 40.7282 0.393398 40.7282 0.878906C40.7282 1.36441 41.1216 1.75781 41.6071 1.75781H41.7835C45.9115 1.75781 49.4232 4.67836 50.1337 8.70234C50.1898 9.01992 50.236 9.34465 50.271 9.66785C50.3635 10.5202 50.2409 11.3888 49.9168 12.1793C49.1229 14.115 47.2579 15.3657 45.1655 15.3657H29.7944C27.7047 15.3657 25.8406 14.1171 25.0455 12.1847C25.0447 12.1826 25.0435 12.1799 25.0424 12.1772C24.7177 11.3859 24.595 10.5172 24.6876 9.6648C24.7226 9.34277 24.7687 9.01898 24.8246 8.70223C25.5349 4.67836 29.0466 1.75781 33.1747 1.75781H37.6434C38.1289 1.75781 38.5223 1.36441 38.5223 0.878906C38.5223 0.393398 38.1289 0 37.6434 0H33.1747C28.1922 0 23.9524 3.53133 23.0934 8.3966C23.0308 8.75145 22.979 9.11426 22.9399 9.47473C22.8153 10.6199 22.981 11.7872 23.4185 12.8504C23.4193 12.8525 23.4206 12.8554 23.4216 12.8582C23.4313 12.8818 23.4421 12.9049 23.4522 12.9285V17.8546C22.4015 18.6693 21.7233 19.9423 21.7233 21.3714C21.7233 23.8249 23.72 25.821 26.1741 25.821C26.2856 25.821 26.397 25.8154 26.5083 25.807C26.9293 27.9891 27.9925 29.9937 29.6052 31.5949C30.7288 32.7105 32.0464 33.5582 33.4815 34.107V35.1825C30.1223 35.5175 27.0862 36.921 24.7058 39.0402L17.7298 32.0641C17.5649 31.8994 17.3415 31.8068 17.1083 31.8068H1.38696C0.901455 31.8068 0.508057 32.2002 0.508057 32.6857C0.508057 33.1712 0.901455 33.5646 1.38696 33.5646H16.7445L23.4606 40.2809C20.9746 43.05 19.4664 46.7054 19.4664 50.6816V52.7012C19.4664 53.1867 19.8598 53.5801 20.3453 53.5801C20.8308 53.5801 21.2242 53.1867 21.2242 52.7012V50.6816C21.2242 47.1877 22.537 43.9731 24.7048 41.525L25.0469 41.8671C25.2186 42.0387 25.4434 42.1245 25.6684 42.1245C25.8933 42.1245 26.1183 42.0387 26.29 41.8671C26.6333 41.5238 26.6333 40.9673 26.29 40.6241L25.951 40.2851C28.009 38.4803 30.608 37.2729 33.4818 36.9493V38.0126C33.4818 40.2163 35.2752 42.0091 37.4795 42.0091C39.6833 42.0091 41.4761 40.2163 41.4761 38.0126V36.9491C48.4026 37.7284 53.7344 43.6345 53.7344 50.6816V59.1211C53.7344 59.6066 54.1278 60 54.6133 60C55.0988 60 55.4922 59.6066 55.4922 59.1211V50.6815C55.492 42.6716 49.3798 35.9702 41.476 35.1824ZM48.7844 24.0633C48.7365 24.0633 48.6885 24.062 48.6408 24.0594C48.6487 23.8862 48.6533 23.7122 48.6533 23.5371V18.6859C48.697 18.6838 48.7404 18.6798 48.7844 18.6798C50.2687 18.6798 51.4763 19.8873 51.4763 21.3716C51.4763 22.8559 50.2687 24.0633 48.7844 24.0633ZM49.7481 15.3845V17.0283C49.4376 16.9594 49.1153 16.922 48.7843 16.922C48.7404 16.922 48.6968 16.9237 48.6531 16.925V16.6771C48.6531 16.5139 48.6483 16.3505 48.6412 16.1876C49.0358 15.9577 49.4065 15.6887 49.7481 15.3845ZM25.2101 15.3829C25.5515 15.6871 25.9222 15.9559 26.3164 16.1859C26.3092 16.3494 26.3044 16.5134 26.3044 16.677V16.9249C26.2611 16.9236 26.2177 16.9219 26.1744 16.9219C25.8432 16.9219 25.5209 16.9594 25.2101 17.0283V15.3829ZM26.1742 24.0633C24.6892 24.0633 23.4813 22.8558 23.4813 21.3715C23.4813 19.8872 24.6894 18.6797 26.1742 18.6797C26.2177 18.6797 26.261 18.6836 26.3043 18.6858V23.666C26.3043 23.7977 26.3074 23.9289 26.3119 24.0598C26.2661 24.0621 26.2202 24.0633 26.1742 24.0633ZM28.0622 23.666V16.9041C28.6189 17.0475 29.1998 17.1236 29.7944 17.1236H45.1654C45.7594 17.1236 46.3394 17.0476 46.8954 16.9046V23.5371C46.8954 28.7619 42.7032 33.0437 37.5504 33.082C37.5271 33.0823 37.504 33.0823 37.4807 33.0823C34.9764 33.0823 32.6218 32.1128 30.8439 30.3476C29.05 28.5667 28.0622 26.1938 28.0622 23.666ZM37.4794 40.2512C36.2443 40.2512 35.2395 39.247 35.2395 38.0125V34.6164C35.9692 34.764 36.7189 34.8401 37.4805 34.84C37.5079 34.84 37.5358 34.84 37.5632 34.8397C38.3004 34.8342 39.0208 34.755 39.7182 34.6103V38.0123C39.7182 39.2469 38.7139 40.2512 37.4794 40.2512Z" fill="white"/>
<path d="M20.3452 55.786C19.8597 55.786 19.4663 56.1794 19.4663 56.6649V59.1211C19.4663 59.6066 19.8597 60 20.3452 60C20.8307 60 21.2241 59.6066 21.2241 59.1211V56.6649C21.2241 56.1794 20.8307 55.786 20.3452 55.786Z" fill="white"/>
<path d="M42.3108 21.9766C42.3142 21.9767 42.3177 21.9767 42.3211 21.9767C42.8018 21.9767 43.1942 21.5897 43.1997 21.1079C43.2053 20.6225 42.8164 20.2245 42.331 20.219L42.321 20.2189C42.3176 20.2187 42.3141 20.2188 42.3107 20.2188C41.8301 20.2188 41.4426 20.6057 41.4371 21.0876C41.4314 21.573 41.8253 21.9711 42.3108 21.9766Z" fill="white"/>
<path d="M32.6473 20.2189H32.6375C32.152 20.2189 31.7634 20.6123 31.7634 21.0978C31.7634 21.5833 32.1617 21.9767 32.6473 21.9767C33.1328 21.9767 33.5262 21.5833 33.5262 21.0978C33.5262 20.6123 33.1326 20.2189 32.6473 20.2189Z" fill="white"/>
<path d="M14.7861 36.0867H3.66968C3.18417 36.0867 2.79077 36.4801 2.79077 36.9656C2.79077 37.4511 3.18417 37.8445 3.66968 37.8445H14.786C15.2715 37.8445 15.6649 37.4511 15.6649 36.9656C15.6649 36.4801 15.2715 36.0867 14.7861 36.0867Z" fill="white"/>
<path d="M14.7862 39.1727H8.45337C7.96786 39.1727 7.57446 39.5661 7.57446 40.0516C7.57446 40.5371 7.96786 40.9305 8.45337 40.9305H14.7862C15.2717 40.9305 15.6651 40.5371 15.6651 40.0516C15.6651 39.5661 15.2716 39.1727 14.7862 39.1727Z" fill="white"/>
<path d="M14.7862 42.2585H8.45337C7.96786 42.2585 7.57446 42.6519 7.57446 43.1375C7.57446 43.623 7.96786 44.0164 8.45337 44.0164H14.7862C15.2717 44.0164 15.6651 43.623 15.6651 43.1375C15.6651 42.6519 15.2716 42.2585 14.7862 42.2585Z" fill="white"/>
<path d="M13.5779 46.7322H10.7686C9.63781 46.7322 8.71777 47.6522 8.71777 48.783V51.5924C8.71777 52.7231 9.63781 53.6432 10.7686 53.6432H13.5779C14.7086 53.6432 15.6287 52.7231 15.6287 51.5924V48.783C15.6287 47.6522 14.7087 46.7322 13.5779 46.7322ZM13.8709 51.5924C13.8709 51.754 13.7395 51.8854 13.5779 51.8854H10.7686C10.607 51.8854 10.4756 51.754 10.4756 51.5924V48.783C10.4756 48.6214 10.607 48.49 10.7686 48.49H13.5779C13.7395 48.49 13.8709 48.6214 13.8709 48.783V51.5924Z" fill="white"/>
<path d="M3.43666 24.8744C4.87959 26.8697 6.95592 28.3091 9.60858 29.1525C9.74287 29.1952 9.88092 29.2166 10.0191 29.2166C10.1572 29.2166 10.2953 29.1952 10.4297 29.1525C13.0822 28.3091 15.1587 26.8697 16.6014 24.8744C17.3066 23.8994 17.7047 22.9907 17.9144 22.4004C18.0437 22.0366 18.1095 21.6543 18.1095 21.2644V19.2344C18.1095 18.7489 17.7161 18.3555 17.2306 18.3555C16.7451 18.3555 16.3517 18.7489 16.3517 19.2344V21.2644C16.3517 21.453 16.3201 21.6371 16.258 21.8117C16.0867 22.294 15.7601 23.0382 15.177 23.8445C13.9812 25.4982 12.2463 26.7068 10.019 27.4381C7.7917 26.7067 6.05662 25.498 4.86096 23.8446C4.65107 23.5543 4.45807 23.2487 4.28744 22.9368C3.89416 22.2173 3.68615 21.3939 3.68615 20.5558V13.5676L10.0188 12.0255L16.3514 13.5676V15.2706C16.3514 15.7561 16.7448 16.1495 17.2303 16.1495C17.7158 16.1495 18.1092 15.7561 18.1092 15.2706V13.2538C18.1092 12.6252 17.6827 12.0824 17.0721 11.9338L10.3394 10.2941C10.1299 10.2434 9.90811 10.2434 9.69729 10.2944L2.96545 11.9338C2.35478 12.0824 1.92822 12.6251 1.92822 13.2538V20.5557C1.92822 21.6876 2.21064 22.8025 2.74502 23.7801C2.95127 24.1564 3.18377 24.5244 3.43666 24.8744Z" fill="white"/>
<path d="M10.0188 22.2503C10.5043 22.2503 10.8977 21.8569 10.8977 21.3714V20.1326H12.1365C12.622 20.1326 13.0154 19.7392 13.0154 19.2537C13.0154 18.7682 12.622 18.3748 12.1365 18.3748H10.8977V17.136C10.8977 16.6505 10.5043 16.2571 10.0188 16.2571C9.53331 16.2571 9.13991 16.6505 9.13991 17.136V18.3748H7.90112C7.41562 18.3748 7.02222 18.7682 7.02222 19.2537C7.02222 19.7392 7.41562 20.1326 7.90112 20.1326H9.13991V21.3714C9.13991 21.8569 9.53331 22.2503 10.0188 22.2503Z" fill="white"/>
<path d="M41.3586 26.1653C41.3761 25.6802 40.9971 25.2728 40.512 25.2552C40.0255 25.2391 39.6195 25.6168 39.6019 26.1019C39.5604 27.2499 38.6277 28.1492 37.4786 28.1492C36.3292 28.1492 35.3965 27.25 35.3552 26.102C35.3379 25.6169 34.9301 25.2373 34.4453 25.2552C33.9601 25.2727 33.581 25.6802 33.5985 26.1652C33.6741 28.2633 35.3783 29.907 37.4784 29.907C39.5786 29.907 41.2829 28.2636 41.3586 26.1653Z" fill="white"/>
</svg>
