<svg width="90" height="90" viewBox="0 0 90 90" fill="none" xmlns="http://www.w3.org/2000/svg">
<g filter="url(#filter0_d_10_6449)">
<rect x="15" y="15.0001" width="60" height="60" rx="15" fill="white"/>
</g>
<g clip-path="url(#clip0_10_6449)">
<path d="M42.1651 56.4814H35.9678C35.6846 56.4814 35.4551 56.711 35.4551 56.9941C35.4551 57.2774 35.6847 57.5069 35.9678 57.5069H42.1651C42.4483 57.5069 42.6779 57.2773 42.6779 56.9941C42.6779 56.711 42.4483 56.4814 42.1651 56.4814Z" fill="#4CAF50"/>
<path d="M44.6156 40.7859L41.9607 38.672C42.0952 38.2894 42.2169 37.6564 42.2169 36.6178C42.2169 35.0932 41.9002 33.8003 41.6298 32.9743C41.8016 32.8213 41.9107 32.5991 41.9107 32.3515V28.8348C41.9107 28.3745 41.5362 28.0001 41.0759 28.0001H37.0567C36.5964 28.0001 36.222 28.3746 36.222 28.8348V32.3515C36.222 32.5992 36.331 32.8213 36.5028 32.9743C36.2324 33.8003 35.9157 35.0932 35.9157 36.6178C35.9157 37.6564 36.0374 38.2894 36.172 38.672L33.517 40.7859C32.9107 41.2685 32.563 41.9899 32.563 42.7649V61.2932C32.563 62.2344 33.3287 63.0001 34.27 63.0001H43.8626C44.8038 63.0001 45.5695 62.2344 45.5695 61.2932V42.7649C45.5696 41.9899 45.2219 41.2685 44.6156 40.7859ZM37.2476 29.0257H40.8851V29.8106H37.2476V29.0257ZM37.2476 30.9064H40.8851V32.1607H37.2476V30.9064ZM37.5131 33.1863H40.6195C40.8315 33.8093 41.0884 34.7705 41.1668 35.9232H36.9657C37.0442 34.7705 37.3011 33.8093 37.5131 33.1863ZM33.5887 44.4771H35.2376C35.5208 44.4771 35.7504 44.2474 35.7504 43.9643C35.7504 43.6811 35.5208 43.4515 35.2376 43.4515H33.5887V42.7649C33.5887 42.304 33.7954 41.8752 34.1559 41.5882L37.1349 39.2163C37.2613 39.1157 37.3672 38.9905 37.3624 38.829C37.3579 38.6756 37.316 38.559 37.1986 38.468C37.15 38.376 36.9774 37.9793 36.9463 36.9488H41.1865C41.1553 37.9794 40.9827 38.376 40.9341 38.4681C40.8166 38.559 40.7747 38.6757 40.7703 38.8291C40.7655 38.9905 40.8715 39.1157 40.9978 39.2163L43.9768 41.5883C44.3373 41.8753 44.544 42.3041 44.544 42.7649V43.4515H37.6236C37.3404 43.4515 37.1108 43.6811 37.1108 43.9643C37.1108 44.2474 37.3404 44.4771 37.6236 44.4771H44.544V59.4676H33.5887V44.4771ZM44.5441 61.2932H44.544C44.544 61.6689 44.2384 61.9745 43.8627 61.9745H34.2701C33.8944 61.9745 33.5887 61.6689 33.5887 61.2932V60.4932H44.5441V61.2932Z" fill="#4CAF50"/>
<path d="M43.3597 46.9501C43.2772 46.6845 43.0851 46.4651 42.8325 46.3482C40.3335 45.1917 37.7993 45.1917 35.3002 46.3482C35.0478 46.4651 34.8556 46.6844 34.7731 46.95C34.6908 47.215 34.7247 47.5038 34.8662 47.7424L35.3215 48.5105C35.5038 48.8179 35.8296 48.9929 36.1666 48.9928C36.3 48.9928 36.4351 48.9654 36.5638 48.908C38.2713 48.1462 39.8618 48.1463 41.5691 48.908C42.023 49.1104 42.5571 48.9396 42.8114 48.5105L43.2667 47.7424C43.4081 47.5039 43.442 47.215 43.3597 46.9501ZM41.9488 47.9544C40.0098 47.1002 38.1233 47.1002 36.1842 47.9544L35.7725 47.2599C37.9585 46.261 40.1745 46.2609 42.3605 47.2599L41.9488 47.9544Z" fill="#4CAF50"/>
<path d="M39.0667 49.8563C37.1041 49.8563 35.5667 50.981 35.5667 52.4169C35.5667 53.8528 37.104 54.9776 39.0667 54.9776C41.0293 54.9776 42.5667 53.8528 42.5667 52.4169C42.5667 50.981 41.0292 49.8563 39.0667 49.8563ZM39.0667 53.9521C37.7254 53.9521 36.5922 53.2491 36.5922 52.417C36.5922 51.5849 37.7254 50.8819 39.0667 50.8819C40.4079 50.8819 41.5411 51.5849 41.5411 52.417C41.5411 53.2491 40.4079 53.9521 39.0667 53.9521Z" fill="#4CAF50"/>
<path d="M57.6229 51.605H50.5119C50.063 51.605 49.6978 51.9703 49.6978 52.4192V61.4349C49.6978 62.298 50.3999 63.0001 51.2629 63.0001H56.8717C57.7348 63.0001 58.4369 62.298 58.4369 61.4349V52.4192C58.437 51.9703 58.0717 51.605 57.6229 51.605ZM50.7234 55.8421H51.4877C51.771 55.8421 52.0005 55.6125 52.0005 55.3293C52.0005 55.0462 51.771 54.8166 51.4877 54.8166H50.7234V52.6306H57.4114V54.8166H53.8737C53.5905 54.8166 53.3609 55.0462 53.3609 55.3293C53.3609 55.6125 53.5905 55.8421 53.8737 55.8421H57.4114V60.2469C57.4114 60.2583 57.411 60.2681 57.4105 60.2764C57.3043 60.3017 57.0721 60.3021 56.9117 60.3015H51.2231C51.0636 60.3023 50.8305 60.3017 50.7243 60.2764C50.7238 60.2681 50.7234 60.2583 50.7234 60.2469V55.8421ZM57.4114 61.4349C57.4114 61.7324 57.1693 61.9745 56.8718 61.9745H51.263C50.9655 61.9745 50.7234 61.7325 50.7234 61.4349V61.3114C50.8834 61.3273 51.052 61.3276 51.2237 61.327H56.9112C57.083 61.3276 57.2513 61.3273 57.4114 61.3114V61.4349Z" fill="#4CAF50"/>
</g>
<defs>
<filter id="filter0_d_10_6449" x="0" y="0.00012207" width="90" height="90" filterUnits="userSpaceOnUse" color-interpolation-filters="sRGB">
<feFlood flood-opacity="0" result="BackgroundImageFix"/>
<feColorMatrix in="SourceAlpha" type="matrix" values="0 0 0 0 0 0 0 0 0 0 0 0 0 0 0 0 0 0 127 0" result="hardAlpha"/>
<feOffset/>
<feGaussianBlur stdDeviation="7.5"/>
<feComposite in2="hardAlpha" operator="out"/>
<feColorMatrix type="matrix" values="0 0 0 0 0 0 0 0 0 0 0 0 0 0 0 0 0 0 0.15 0"/>
<feBlend mode="normal" in2="BackgroundImageFix" result="effect1_dropShadow_10_6449"/>
<feBlend mode="normal" in="SourceGraphic" in2="effect1_dropShadow_10_6449" result="shape"/>
</filter>
<clipPath id="clip0_10_6449">
<rect width="35" height="35" fill="white" transform="translate(28 28.0001)"/>
</clipPath>
</defs>
</svg>
