<svg width="90" height="90" viewBox="0 0 90 90" fill="none" xmlns="http://www.w3.org/2000/svg">
<g filter="url(#filter0_d_10_6487)">
<rect x="15" y="15.0001" width="60" height="60" rx="15" fill="white"/>
</g>
<g clip-path="url(#clip0_10_6487)">
<path d="M47.2498 58.3333C46.9277 58.3333 46.6665 58.5945 46.6665 58.9166V62.4166C46.6665 62.739 46.9277 63 47.2498 63H56.5831C56.9053 63 57.1665 62.739 57.1665 62.4166V58.9166C57.1665 58.5945 56.9053 58.3333 56.5831 58.3333H54.2498V56H56.5831C56.9053 56 57.1665 55.7391 57.1665 55.4167V36.7501C57.1665 36.4279 56.9053 36.1667 56.5831 36.1667H54.2498V29.7501C54.2498 29.4992 54.0892 29.2761 53.8508 29.1967L50.3508 28.03C50.173 27.9708 49.9774 28.0007 49.8253 28.1103C49.6732 28.22 49.5832 28.396 49.5832 28.5834V36.1667H47.2498C46.9277 36.1667 46.6665 36.4279 46.6665 36.7501V55.4167C46.6665 55.7391 46.9277 56 47.2498 56H49.5832V58.3333H47.2498ZM55.9998 61.8333H47.8332V59.5H55.9998V61.8333ZM50.7498 29.3926L53.0831 30.1708V36.1667H50.7498V29.3926ZM47.8332 37.3334H55.9998V54.8333H47.8332V37.3334ZM50.7498 56H53.0831V58.3333H50.7498V56Z" fill="#4CAF50"/>
<path d="M47.2498 58.3333C46.9277 58.3333 46.6665 58.5945 46.6665 58.9166V62.4166C46.6665 62.739 46.9277 63 47.2498 63H56.5831C56.9053 63 57.1665 62.739 57.1665 62.4166V58.9166C57.1665 58.5945 56.9053 58.3333 56.5831 58.3333H54.2498V56H56.5831C56.9053 56 57.1665 55.7391 57.1665 55.4167V36.7501C57.1665 36.4279 56.9053 36.1667 56.5831 36.1667H54.2498V29.7501C54.2498 29.4992 54.0892 29.2761 53.8508 29.1967L50.3508 28.03C50.173 27.9708 49.9774 28.0007 49.8253 28.1103C49.6732 28.22 49.5832 28.396 49.5832 28.5834V36.1667H47.2498C46.9277 36.1667 46.6665 36.4279 46.6665 36.7501V55.4167C46.6665 55.7391 46.9277 56 47.2498 56H49.5832V58.3333H47.2498ZM55.9998 61.8333H47.8332V59.5H55.9998V61.8333ZM50.7498 29.3926L53.0831 30.1708V36.1667H50.7498V29.3926ZM47.8332 37.3334H55.9998V54.8333H47.8332V37.3334ZM50.7498 56H53.0831V58.3333H50.7498V56Z" fill="#4CAF50"/>
<path d="M49 51.3334H52.5V52.5H49V51.3334Z" fill="#4CAF50"/>
<path d="M49 51.3334H52.5V52.5H49V51.3334Z" fill="#4CAF50"/>
<path d="M49 47.8334H52.5V49H49V47.8334Z" fill="#4CAF50"/>
<path d="M49 47.8334H52.5V49H49V47.8334Z" fill="#4CAF50"/>
<path d="M49 44.3334H52.5V45.5H49V44.3334Z" fill="#4CAF50"/>
<path d="M49 44.3334H52.5V45.5H49V44.3334Z" fill="#4CAF50"/>
<path d="M49 40.8334H52.5V42.0001H49V40.8334Z" fill="#4CAF50"/>
<path d="M49 40.8334H52.5V42.0001H49V40.8334Z" fill="#4CAF50"/>
<path d="M36.1667 59.5C38.7441 59.5 40.8333 57.4108 40.8333 54.8334C40.8333 52.2562 38.7441 50.1667 36.1667 50.1667C33.5895 50.1667 31.5 52.2562 31.5 54.8334C31.5028 57.4096 33.5907 59.4972 36.1667 59.5ZM36.1667 51.3334C37.8739 51.3356 39.3314 52.5672 39.6182 54.25H32.7151C33.0022 52.5672 34.4594 51.3356 36.1667 51.3334ZM39.6182 55.4167C39.3351 57.1023 37.8759 58.3368 36.1667 58.3368C34.4577 58.3368 32.9985 57.1023 32.7151 55.4167H39.6182Z" fill="#4CAF50"/>
<path d="M36.1667 59.5C38.7441 59.5 40.8333 57.4108 40.8333 54.8334C40.8333 52.2562 38.7441 50.1667 36.1667 50.1667C33.5895 50.1667 31.5 52.2562 31.5 54.8334C31.5028 57.4096 33.5907 59.4972 36.1667 59.5ZM36.1667 51.3334C37.8739 51.3356 39.3314 52.5672 39.6182 54.25H32.7151C33.0022 52.5672 34.4594 51.3356 36.1667 51.3334ZM39.6182 55.4167C39.3351 57.1023 37.8759 58.3368 36.1667 58.3368C34.4577 58.3368 32.9985 57.1023 32.7151 55.4167H39.6182Z" fill="#4CAF50"/>
<path d="M43.8703 41.9605C42.6148 40.8067 40.8295 40.4296 39.2145 40.977C37.5992 41.5247 36.4115 42.9096 36.1164 44.5892C35.8213 46.2689 36.4662 47.9759 37.7977 49.0411C39.0536 50.195 40.8389 50.5721 42.4539 50.0246C44.0689 49.4769 45.2569 48.0921 45.552 46.4124C45.8468 44.7328 45.2022 43.0258 43.8703 41.9605ZM37.3335 45.5001C37.3343 44.2395 38.0131 43.0765 39.1105 42.4558C40.208 41.8352 41.5547 41.8529 42.6356 42.502L38.1467 47.7386C37.6214 47.1108 37.3338 46.3187 37.3335 45.5001ZM40.8335 49.0001C40.1986 48.9995 39.5757 48.8261 39.0316 48.4985L43.5234 43.2619C44.3944 44.3047 44.5827 45.7576 44.0059 46.9878C43.4294 48.218 42.1921 49.0027 40.8335 49.0001Z" fill="#4CAF50"/>
<path d="M43.8703 41.9605C42.6148 40.8067 40.8295 40.4296 39.2145 40.977C37.5992 41.5247 36.4115 42.9096 36.1164 44.5892C35.8213 46.2689 36.4662 47.9759 37.7977 49.0411C39.0536 50.195 40.8389 50.5721 42.4539 50.0246C44.0689 49.4769 45.2569 48.0921 45.552 46.4124C45.8468 44.7328 45.2022 43.0258 43.8703 41.9605ZM37.3335 45.5001C37.3343 44.2395 38.0131 43.0765 39.1105 42.4558C40.208 41.8352 41.5547 41.8529 42.6356 42.502L38.1467 47.7386C37.6214 47.1108 37.3338 46.3187 37.3335 45.5001ZM40.8335 49.0001C40.1986 48.9995 39.5757 48.8261 39.0316 48.4985L43.5234 43.2619C44.3944 44.3047 44.5827 45.7576 44.0059 46.9878C43.4294 48.218 42.1921 49.0027 40.8335 49.0001Z" fill="#4CAF50"/>
<path d="M32.6667 33.8334H33.8334V35.0001H32.6667V33.8334Z" fill="#4CAF50"/>
<path d="M32.6667 33.8334H33.8334V35.0001H32.6667V33.8334Z" fill="#4CAF50"/>
<path d="M36.1667 36.1667H37.3334V37.3334H36.1667V36.1667Z" fill="#4CAF50"/>
<path d="M36.1667 36.1667H37.3334V37.3334H36.1667V36.1667Z" fill="#4CAF50"/>
<path d="M30.3335 43.1667H31.5002V44.3334H30.3335V43.1667Z" fill="#4CAF50"/>
<path d="M30.3335 43.1667H31.5002V44.3334H30.3335V43.1667Z" fill="#4CAF50"/>
<path d="M43.1667 56H44.3334V57.1667H43.1667V56Z" fill="#4CAF50"/>
<path d="M43.1667 56H44.3334V57.1667H43.1667V56Z" fill="#4CAF50"/>
<path d="M58.3333 40.8334H59.4999V42.0001H58.3333V40.8334Z" fill="#4CAF50"/>
<path d="M58.3333 40.8334H59.4999V42.0001H58.3333V40.8334Z" fill="#4CAF50"/>
<path d="M59.5 44.3334H60.6667V45.5H59.5V44.3334Z" fill="#4CAF50"/>
<path d="M59.5 44.3334H60.6667V45.5H59.5V44.3334Z" fill="#4CAF50"/>
<path d="M42 58.3334H43.1667V59.5H42V58.3334Z" fill="#4CAF50"/>
<path d="M42 58.3334H43.1667V59.5H42V58.3334Z" fill="#4CAF50"/>
<path d="M43.1667 59.4999H44.3334V60.6666H43.1667V59.4999Z" fill="#4CAF50"/>
<path d="M43.1667 59.4999H44.3334V60.6666H43.1667V59.4999Z" fill="#4CAF50"/>
<path d="M44.3335 32.6668H45.5002V33.8335H44.3335V32.6668Z" fill="#4CAF50"/>
<path d="M44.3335 32.6668H45.5002V33.8335H44.3335V32.6668Z" fill="#4CAF50"/>
<path d="M53.6667 42.0001H54.8333V39.0835C54.8333 38.7613 54.5721 38.5001 54.25 38.5001H49V39.6668H53.6667V42.0001Z" fill="#4CAF50"/>
<path d="M53.6667 42.0001H54.8333V39.0835C54.8333 38.7613 54.5721 38.5001 54.25 38.5001H49V39.6668H53.6667V42.0001Z" fill="#4CAF50"/>
<path d="M53.6667 43.1667H54.8334V44.3334H53.6667V43.1667Z" fill="#4CAF50"/>
<path d="M53.6667 43.1667H54.8334V44.3334H53.6667V43.1667Z" fill="#4CAF50"/>
</g>
<defs>
<filter id="filter0_d_10_6487" x="0" y="0.00012207" width="90" height="90" filterUnits="userSpaceOnUse" color-interpolation-filters="sRGB">
<feFlood flood-opacity="0" result="BackgroundImageFix"/>
<feColorMatrix in="SourceAlpha" type="matrix" values="0 0 0 0 0 0 0 0 0 0 0 0 0 0 0 0 0 0 127 0" result="hardAlpha"/>
<feOffset/>
<feGaussianBlur stdDeviation="7.5"/>
<feComposite in2="hardAlpha" operator="out"/>
<feColorMatrix type="matrix" values="0 0 0 0 0 0 0 0 0 0 0 0 0 0 0 0 0 0 0.15 0"/>
<feBlend mode="normal" in2="BackgroundImageFix" result="effect1_dropShadow_10_6487"/>
<feBlend mode="normal" in="SourceGraphic" in2="effect1_dropShadow_10_6487" result="shape"/>
</filter>
<clipPath id="clip0_10_6487">
<rect width="35" height="35" fill="white" transform="translate(28 28.0001)"/>
</clipPath>
</defs>
</svg>
