<svg width="18" height="12" viewBox="0 0 18 12" fill="none" xmlns="http://www.w3.org/2000/svg">
<path d="M17.7473 5.94543L16.7087 1.27113C16.5418 0.522582 15.8899 1.98781e-05 15.1238 1.98781e-05C14.2288 1.98781e-05 13.5 0.728422 13.5 1.62343V1.87501C13.5 2.08229 13.6677 2.25002 13.875 2.25002C14.0823 2.25002 14.25 2.08229 14.25 1.87501V1.62343C14.25 1.14186 14.6419 0.750008 15.1238 0.750008C15.5361 0.750008 15.887 1.03161 15.9763 1.43408L17.0149 6.10803C17.1438 6.68885 17.22 7.28137 17.2427 7.87498H17.2121C17.0208 5.98534 15.4393 4.49998 13.5 4.49998C11.8045 4.49998 10.3847 5.63852 9.92257 7.18585C9.69311 6.94394 9.39069 6.74998 9 6.74998C8.60931 6.74998 8.30689 6.94394 8.07743 7.18585C7.6153 5.63852 6.19552 4.49998 4.5 4.49998C2.56078 4.49998 0.979207 5.98534 0.787887 7.87498H0.757301C0.780012 7.28137 0.856195 6.68881 0.985078 6.10803L2.02366 1.43443C2.11303 1.03161 2.46386 0.749973 2.8762 0.749973C3.35812 0.749973 3.74998 1.14182 3.74998 1.62339V1.87497C3.74998 2.08225 3.91771 2.24998 4.12499 2.24998C4.33227 2.24998 4.5 2.08225 4.5 1.87497V1.62339C4.5 0.728387 3.77125 -1.52588e-05 2.8762 -1.52588e-05C2.11008 -1.52588e-05 1.45825 0.522582 1.29125 1.27148L0.252703 5.94543C0.0849727 6.70203 0 7.4773 0 8.25C0 8.45728 0.16773 8.62501 0.375012 8.62501H0.787922C0.979207 10.5147 2.56078 12 4.50004 12C6.53572 12 8.18972 10.367 8.24059 8.34334C8.31593 8.13366 8.6156 7.50001 9.00004 7.50001C9.37459 7.50001 9.67047 8.09837 9.75938 8.34221C9.80965 10.3664 11.464 12 13.5 12C15.4393 12 17.0208 10.5147 17.2121 8.62501H17.6251C17.8323 8.62501 18.0001 8.45728 18.0001 8.25C18 7.4773 17.915 6.70203 17.7473 5.94543ZM4.5 11.25C2.84544 11.25 1.50001 9.90417 1.50001 8.25C1.50001 6.59582 2.84548 5.25001 4.5 5.25001C6.15452 5.25001 7.49999 6.59582 7.49999 8.25C7.49999 9.90417 6.15456 11.25 4.5 11.25ZM13.5 11.25C11.8454 11.25 10.5 9.90417 10.5 8.25C10.5 6.59582 11.8455 5.25001 13.5 5.25001C15.1545 5.25001 16.5 6.59582 16.5 8.25C16.5 9.90417 15.1546 11.25 13.5 11.25Z" fill="white"/>
<path d="M4.5 6C3.25927 6 2.25 7.00927 2.25 8.25C2.25 8.45728 2.41773 8.62501 2.62501 8.62501C2.83229 8.62501 3.00002 8.45728 3.00002 8.25C3.00002 7.42274 3.67313 6.74999 4.50004 6.74999C4.70732 6.74999 4.87505 6.58226 4.87505 6.37498C4.87501 6.16773 4.70728 6 4.5 6Z" fill="white"/>
<path d="M13.5 6C12.2593 6 11.25 7.00927 11.25 8.25C11.25 8.45728 11.4177 8.62501 11.625 8.62501C11.8323 8.62501 12 8.45728 12 8.25C12 7.42274 12.6731 6.74999 13.5 6.74999C13.7073 6.74999 13.875 6.58226 13.875 6.37498C13.875 6.16773 13.7073 6 13.5 6Z" fill="white"/>
</svg>
